<svg width="50" height="50" viewBox="0 0 50 50" fill="none" xmlns="http://www.w3.org/2000/svg">
<path d="M45 0H5C2.23858 0 0 2.23858 0 5V45C0 47.7614 2.23858 50 5 50H45C47.7614 50 50 47.7614 50 45V5C50 2.23858 47.7614 0 45 0Z" fill="#42A5F5"/>
<path d="M13.7324 10L12.6861 15.5667H34.5614L33.8531 19.1667H11.994L10.9316 24.7167H32.8068L31.5835 31.0667L22.7626 34.0833L15.1167 31.0667L15.6479 28.3333H10.2716L9 35L21.6358 40L36.2032 35L38.1348 24.95L38.5211 22.9333L41 10H13.7324Z" fill="white"/>
</svg>
