<svg width="50" height="50" viewBox="0 0 50 50" fill="none" xmlns="http://www.w3.org/2000/svg">
<path d="M45 0H5C2.23858 0 0 2.23858 0 5V45C0 47.7614 2.23858 50 5 50H45C47.7614 50 50 47.7614 50 45V5C50 2.23858 47.7614 0 45 0Z" fill="#E44D26"/>
<path d="M25 34.73L32.1225 32.7525L33.085 22.0775H20.415L20.1 18.525H33.4L33.75 15.0425H16.25L17.23 25.56H29.2875L28.885 30.075L25 31.125L21.115 30.075L20.87 27.17H17.37L17.8775 32.7525L25 34.73ZM11.1225 9.25H38.8775L36.375 37.6L25 40.75L13.625 37.6L11.1225 9.25Z" fill="white"/>
</svg>
