<svg width="50" height="50" viewBox="0 0 50 50" fill="none" xmlns="http://www.w3.org/2000/svg">
<path d="M45 0H5C2.23858 0 0 2.23858 0 5V45C0 47.7614 2.23858 50 5 50H45C47.7614 50 50 47.7614 50 45V5C50 2.23858 47.7614 0 45 0Z" fill="#FDE635"/>
<path d="M7.367 6.616H42.83V41.816H7.367V6.616Z" fill="#FDE635"/>
<path d="M13.964 36.77L17.147 34.844C17.761 35.933 18.32 36.854 19.66 36.854C20.944 36.854 21.754 36.354 21.754 34.397V21.107H25.663V34.452C25.663 38.5 23.29 40.343 19.828 40.343C18.6041 40.4092 17.3888 40.1032 16.3422 39.4652C15.2957 38.8273 14.4669 37.8872 13.965 36.769L13.964 36.77ZM27.787 36.35L30.97 34.507C31.3239 35.225 31.8732 35.8285 32.5548 36.2483C33.2364 36.6681 34.0226 36.887 34.823 36.88C36.443 36.88 37.475 36.07 37.475 34.953C37.475 33.613 36.414 33.138 34.627 32.353L33.653 31.939C30.833 30.739 28.962 29.231 28.962 26.048C28.962 23.116 31.196 20.883 34.686 20.883C35.8168 20.801 36.9468 21.0539 37.9348 21.61C38.9229 22.1661 39.7253 23.0008 40.242 24.01L37.198 25.965C36.9982 25.464 36.6509 25.0356 36.2021 24.7365C35.7533 24.4373 35.2243 24.2816 34.685 24.29C34.4499 24.2662 34.2124 24.2917 33.9877 24.3648C33.763 24.438 33.5561 24.5572 33.38 24.7148C33.204 24.8724 33.0627 25.065 32.9652 25.2802C32.8678 25.4955 32.8163 25.7287 32.814 25.965C32.814 27.138 33.54 27.612 35.214 28.338L36.191 28.757C39.514 30.181 41.384 31.633 41.384 34.899C41.384 38.417 38.62 40.344 34.907 40.344C31.277 40.344 28.932 38.613 27.787 36.351" fill="black"/>
</svg>
