<svg width="50" height="50" viewBox="0 0 50 50" fill="none" xmlns="http://www.w3.org/2000/svg">
<path d="M45 0H5C2.23858 0 0 2.23858 0 5V45C0 47.7614 2.23858 50 5 50H45C47.7614 50 50 47.7614 50 45V5C50 2.23858 47.7614 0 45 0Z" fill="#3A3A3A"/>
<path d="M31.7445 21.8C30.1016 14.2923 26.6986 12.3231 25.8772 10.9692C25.4078 10.3538 25.1731 9.61538 24.821 9C24.821 9.61538 24.7037 10.1077 24.2343 10.6C23.0608 11.5846 18.4843 15.5231 18.0149 24.0154C17.6629 32.0154 23.6476 36.8154 24.469 37.3077C25.0557 37.6769 25.8772 37.3077 26.2292 37.0615C29.0455 34.9692 33.0353 29.5538 31.7445 21.8Z" fill="#10AA50"/>
<path d="M25.0557 33C24.821 34.9692 24.7037 36.0769 24.3517 37.1846C24.3517 37.1846 24.5863 39.0308 24.821 41H25.4078C25.6425 39.6462 25.8772 38.2923 26.1119 36.9385C25.2904 36.4462 25.0557 34.7231 25.0557 33Z" fill="#B8C4C2"/>
<path d="M26.2292 37.0615C25.4078 36.5692 25.1731 34.7231 25.1731 33.1231C25.4078 30.2923 25.4078 27.4615 25.4078 24.5077C25.2904 23.0308 25.4078 10.8462 25.0557 9C25.2904 9.61538 25.5251 10.2308 25.8772 10.7231C26.6986 12.2 30.1016 14.1692 31.7445 21.6769C33.0353 29.4308 29.1629 34.9692 26.2292 37.0615Z" fill="#12924F"/>
</svg>
