<svg width="50" height="50" viewBox="0 0 50 50" fill="none" xmlns="http://www.w3.org/2000/svg">
<path d="M45 0H5C2.23858 0 0 2.23858 0 5V45C0 47.7614 2.23858 50 5 50H45C47.7614 50 50 47.7614 50 45V5C50 2.23858 47.7614 0 45 0Z" fill="black"/>
<path d="M14.4383 19.2595H21.9827V19.8559H15.1299V24.3444H21.574V24.9407H15.1299V29.8686H22.0613V30.465H14.4383V19.2595ZM22.6585 19.2595H23.4601L27.0123 24.1874L30.643 19.2595L35.5814 13L27.4681 24.7053L31.6489 30.465H30.8159L27.0123 25.2232L23.1929 30.465H22.3756L26.5879 24.7053L22.6585 19.2595ZM31.9475 19.8559V19.2595H40.545V19.8559H36.5842V30.465H35.8926V19.8559H31.9475ZM5 19.2595H5.86446L17.7848 37L12.8587 30.465L5.723 20.107L5.69157 30.465H5V19.2595ZM40.4753 29.6886C40.334 29.6886 40.228 29.5798 40.228 29.439C40.228 29.2983 40.334 29.1895 40.4753 29.1895C40.6183 29.1895 40.7225 29.2983 40.7225 29.439C40.7225 29.5798 40.6183 29.6886 40.4753 29.6886ZM41.1548 29.032H41.5249C41.5299 29.2313 41.6763 29.3653 41.8916 29.3653C42.1321 29.3653 42.2684 29.2213 42.2684 28.9516V27.243H42.6451V28.9533C42.6451 29.439 42.3625 29.7188 41.8949 29.7188C41.4559 29.7188 41.1548 29.4474 41.1548 29.032ZM43.138 29.0102H43.5114C43.5433 29.2397 43.7687 29.3854 44.0934 29.3854C44.3961 29.3854 44.6182 29.2297 44.6182 29.0153C44.6182 28.831 44.4769 28.7204 44.1556 28.6451L43.8428 28.5697C43.4037 28.4675 43.2036 28.2565 43.2036 27.9013C43.2036 27.4709 43.5568 27.1844 44.0866 27.1844C44.5795 27.1844 44.9394 27.4709 44.9613 27.8779H44.5946C44.5593 27.6551 44.3642 27.5161 44.0816 27.5161C43.7839 27.5161 43.5854 27.6585 43.5854 27.8762C43.5854 28.0487 43.7132 28.1476 44.0295 28.2213L44.2969 28.2866C44.7948 28.4022 45 28.6032 45 28.9667C45 29.429 44.64 29.7188 44.0648 29.7188C43.5265 29.7188 43.1649 29.4424 43.138 29.0102Z" fill="white"/>
</svg>
