<svg width="50" height="50" viewBox="0 0 50 50" fill="none" xmlns="http://www.w3.org/2000/svg">
<path d="M45 0H5C2.23858 0 0 2.23858 0 5V45C0 47.7614 2.23858 50 5 50H45C47.7614 50 50 47.7614 50 45V5C50 2.23858 47.7614 0 45 0Z" fill="#61DAFB"/>
<path d="M26.067 37.696C25.753 37.423 25.424 37.15 25.11 36.847C24.859 37.074 24.624 37.286 24.373 37.499C21.267 40.121 18.067 41.212 16.173 40.151C14.338 39.136 13.754 36.135 14.491 32.362C14.5697 31.9527 14.6637 31.5433 14.773 31.134C14.444 31.043 14.13 30.952 13.816 30.846C9.911 29.544 7.338 27.423 7.338 25.301C7.338 23.256 9.738 21.27 13.487 20.001C13.911 19.865 14.35 19.728 14.805 19.607C14.695 19.213 14.617 18.834 14.538 18.47C13.754 14.633 14.303 11.573 16.154 10.542C18.083 9.451 21.284 10.618 24.499 13.36C24.687 13.527 24.876 13.709 25.079 13.89C25.379 13.618 25.659 13.345 25.958 13.102C29.001 10.542 32.029 9.466 33.879 10.497C35.808 11.557 36.373 14.831 35.51 18.876C35.463 19.134 35.4 19.376 35.338 19.634C35.73 19.74 36.122 19.861 36.483 19.983C40.311 21.256 42.789 23.241 42.758 25.332C42.758 27.469 40.107 29.575 36.044 30.878C35.824 30.939 35.605 31.014 35.385 31.078C35.479 31.378 35.542 31.684 35.605 31.987C36.421 35.912 35.793 39.124 33.895 40.187C33.3882 40.461 32.819 40.5988 32.243 40.587C30.501 40.58 28.292 39.543 26.067 37.696ZM29.138 32.135C28.2307 33.4112 27.2402 34.6262 26.173 35.772C26.473 36.06 26.773 36.318 27.067 36.56C29.655 38.712 32.039 39.515 33.153 38.893C33.4849 38.6411 33.7599 38.322 33.96 37.9565C34.16 37.591 34.2807 37.1873 34.314 36.772C34.5409 35.2685 34.477 33.7354 34.126 32.256C34.079 31.983 34.016 31.711 33.938 31.423C32.3542 31.7588 30.7511 31.9966 29.138 32.135V32.135ZM15.993 32.62C15.35 35.847 15.821 38.257 16.934 38.878C17.3323 39.0285 17.7567 39.0979 18.1822 39.0823C18.6077 39.0667 19.0258 38.9663 19.412 38.787C20.8696 38.237 22.2146 37.4257 23.381 36.393C23.616 36.211 23.836 35.999 24.071 35.787C22.9804 34.6406 21.964 33.4258 21.028 32.15C19.4209 32.028 17.8231 31.8052 16.244 31.483C16.154 31.877 16.076 32.256 15.997 32.62H15.993ZM25.122 34.741C25.812 33.998 26.502 33.18 27.193 32.271C26.503 32.301 25.781 32.316 25.06 32.316C24.339 32.316 23.66 32.301 22.989 32.271C23.6589 33.1302 24.3721 33.9546 25.126 34.741H25.122ZM21.832 19.952C21.232 20.785 20.656 21.664 20.107 22.589C19.558 23.498 19.056 24.423 18.601 25.347C19.072 26.256 19.574 27.181 20.123 28.12C20.672 29.029 21.253 29.92 21.849 30.771C22.884 30.832 23.967 30.862 25.065 30.862C26.179 30.862 27.265 30.832 28.312 30.756C28.877 29.923 29.457 29.029 30.006 28.104C30.555 27.179 31.072 26.24 31.527 25.331C31.072 24.437 30.554 23.513 30.006 22.588C29.458 21.663 28.877 20.788 28.296 19.951C27.245 19.875 26.162 19.829 25.065 19.829C23.968 19.829 22.883 19.876 21.832 19.952ZM16.656 30.089C17.7344 30.3116 18.8235 30.4785 19.919 30.589C19.542 30.013 19.166 29.437 18.805 28.831C18.46 28.24 18.115 27.649 17.805 27.058C17.3679 28.047 16.9844 29.0588 16.656 30.089V30.089ZM31.322 28.816C30.961 29.422 30.6 29.998 30.24 30.559C31.3518 30.4331 32.4565 30.2512 33.55 30.014C33.208 28.9877 32.81 27.9808 32.358 26.998C32.0287 27.6053 31.6833 28.2113 31.322 28.816ZM13.973 21.392C10.773 22.483 8.844 24.074 8.844 25.316C8.91112 25.7271 9.06283 26.1198 9.28952 26.4692C9.51622 26.8186 9.81297 27.1172 10.161 27.346C11.407 28.2893 12.8084 29.0071 14.302 29.467C14.584 29.558 14.882 29.634 15.18 29.725C15.6645 28.2286 16.2464 26.7654 16.922 25.345C16.2452 23.9483 15.6684 22.5054 15.196 21.027C14.7733 21.1337 14.3657 21.2553 13.973 21.392ZM33.22 25.316C33.9147 26.718 34.5121 28.1661 35.008 29.65C35.208 29.59 35.416 29.529 35.608 29.468C39.108 28.347 41.271 26.635 41.287 25.301C41.287 24.059 39.279 22.452 36 21.361C35.671 21.255 35.31 21.149 34.949 21.043C34.4694 22.5046 33.8918 23.9322 33.22 25.316ZM31.306 21.831C31.667 22.437 32.012 23.031 32.325 23.619C32.7593 22.6571 33.1363 21.6704 33.454 20.664C32.434 20.437 31.354 20.255 30.223 20.119C30.601 20.679 30.962 21.24 31.307 21.831H31.306ZM16.671 20.649C16.985 21.618 17.361 22.604 17.801 23.619C18.115 23.028 18.46 22.437 18.801 21.846C19.142 21.255 19.507 20.679 19.883 20.119C18.758 20.255 17.691 20.437 16.671 20.649ZM26.946 14.209C26.679 14.436 26.412 14.679 26.146 14.921C27.2296 16.0509 28.2321 17.2559 29.146 18.527C30.7392 18.6658 32.3215 18.9087 33.883 19.254C33.946 19.027 33.993 18.799 34.04 18.572C34.777 15.087 34.323 12.42 33.13 11.754C32.8639 11.6204 32.5686 11.5554 32.271 11.565C30.986 11.566 29.02 12.47 26.946 14.209ZM16.907 11.8C15.793 12.421 15.354 14.909 16.013 18.179C16.091 18.528 16.17 18.879 16.264 19.239C17.8272 18.9064 19.4091 18.6686 21.001 18.527C21.9171 17.2543 22.9237 16.0491 24.013 14.921C23.841 14.754 23.652 14.603 23.48 14.451C21.294 12.58 19.198 11.592 17.828 11.592C17.5083 11.5815 17.1912 11.6532 16.907 11.8ZM27.166 18.409C26.5168 17.5577 25.8204 16.7434 25.08 15.97C24.374 16.712 23.668 17.531 22.98 18.409C23.67 18.379 24.36 18.364 25.066 18.364C25.772 18.364 26.475 18.376 27.166 18.409ZM21.925 25.38C21.9031 24.7485 22.0703 24.1249 22.4052 23.5891C22.7402 23.0533 23.2275 22.6298 23.8048 22.3729C24.3821 22.116 25.0229 22.0374 25.6452 22.1473C26.2674 22.2571 26.8427 22.5503 27.2971 22.9892C27.7516 23.4282 28.0646 23.993 28.1959 24.611C28.3272 25.2291 28.2708 25.8723 28.0341 26.4581C27.7974 27.0439 27.391 27.5457 26.8672 27.899C26.3433 28.2523 25.7259 28.441 25.094 28.441C24.6844 28.4491 24.2773 28.3761 23.896 28.2263C23.5147 28.0765 23.1668 27.8528 22.8723 27.568C22.5778 27.2833 22.3425 26.9431 22.1799 26.5671C22.0174 26.1911 21.9307 25.7866 21.925 25.377V25.38Z" fill="#E6E6E6"/>
</svg>
