<svg width="50" height="50" viewBox="0 0 50 50" fill="none" xmlns="http://www.w3.org/2000/svg">
<path d="M45 0H5C2.23858 0 0 2.19468 0 4.90196V45.098C0 47.8053 2.23858 50 5 50H45C47.7614 50 50 47.8053 50 45.098V4.90196C50 2.19468 47.7614 0 45 0Z" fill="#3BC0DD"/>
<path d="M25.974 37.1471C25.674 36.8657 25.361 36.5833 25.062 36.2706C24.823 36.5049 24.599 36.7245 24.362 36.9431C21.403 39.649 18.353 40.7755 16.545 39.6804C14.796 38.6324 14.245 35.5363 14.945 31.6412C15.0197 31.219 15.1093 30.7967 15.214 30.3745C14.9 30.2765 14.601 30.1863 14.302 30.0804C10.579 28.7324 8.128 26.5431 8.128 24.353C8.128 22.2422 10.415 20.1931 13.987 18.8794C14.387 18.7382 14.809 18.5981 15.243 18.4726C15.143 18.0657 15.064 17.6745 14.989 17.2961C14.241 13.3422 14.764 10.1833 16.528 9.11962C18.366 7.99315 21.416 9.19805 24.479 12.0284C24.658 12.2 24.838 12.3882 25.032 12.5755C25.316 12.2941 25.585 12.0128 25.869 11.7628C28.769 9.1157 31.653 8.00884 33.417 9.07256C35.255 10.1667 35.794 13.5451 34.972 17.7216C34.927 17.9882 34.872 18.2382 34.808 18.5059C35.182 18.6157 35.555 18.7402 35.899 18.8657C39.546 20.1794 41.908 22.2284 41.878 24.3863C41.878 26.5912 39.352 28.7657 35.478 30.1108C35.269 30.1735 35.06 30.252 34.85 30.3137C34.94 30.6265 34.999 30.9392 35.059 31.252C35.836 35.303 35.238 38.6186 33.43 39.7137C32.9552 39.994 32.4091 40.1367 31.855 40.1255C30.198 40.1226 28.094 39.053 25.974 37.1471ZM28.904 31.4069C28.0454 32.7163 27.1018 33.9702 26.079 35.1608C26.363 35.4549 26.647 35.7245 26.931 35.9745C29.397 38.1951 31.669 39.0245 32.731 38.3833C33.0553 38.1095 33.3203 37.7747 33.5103 37.3986C33.7003 37.0226 33.8114 36.613 33.837 36.1941C34.0528 34.642 33.9919 33.065 33.657 31.5333C33.612 31.252 33.557 30.9706 33.478 30.6735C31.972 31.0191 30.4438 31.2641 28.904 31.4069ZM16.378 31.9079C15.766 35.2412 16.214 37.7255 17.278 38.3677C17.655 38.5221 18.0619 38.5934 18.4701 38.5764C18.8783 38.5595 19.2777 38.4548 19.64 38.2696C21.0494 37.6889 22.333 36.8501 23.422 35.798C23.646 35.6098 23.855 35.3912 24.08 35.1726C23.0347 33.9816 22.0661 32.7278 21.18 31.4186C19.646 31.293 18.1227 31.0637 16.621 30.7324C16.528 31.1412 16.453 31.5314 16.378 31.9079ZM25.078 34.0971C25.736 33.3304 26.393 32.4863 27.051 31.548C26.393 31.5794 25.706 31.5951 25.018 31.5951C24.33 31.5951 23.688 31.5794 23.045 31.548C23.717 32.4696 24.39 33.3304 25.077 34.0971H25.078ZM21.938 18.8324C21.37 19.6922 20.817 20.5971 20.294 21.5539C19.771 22.4922 19.294 23.4461 18.859 24.3971C19.308 25.3353 19.786 26.2892 20.309 27.2598C20.832 28.198 21.385 29.1226 21.953 29.9961C22.939 30.0588 23.971 30.0941 25.017 30.0941C26.063 30.0941 27.109 30.0628 28.111 29.9853C28.649 29.1255 29.202 28.202 29.726 27.2481C30.25 26.2941 30.742 25.3245 31.176 24.3863C30.742 23.4637 30.249 22.5098 29.726 21.5549C29.203 20.6 28.65 19.6922 28.097 18.8333C27.097 18.7549 26.064 18.7079 25.018 18.7079C23.972 18.7079 22.94 18.7539 21.938 18.8324ZM17.006 29.2951C18.0315 29.5248 19.0695 29.6973 20.115 29.8118C19.756 29.2177 19.398 28.6226 19.054 27.9971C18.725 27.3873 18.396 26.7775 18.097 26.1677C17.664 27.2304 17.305 28.2804 17.006 29.2951ZM30.981 27.9814C30.637 28.6069 30.293 29.201 29.95 29.7804C31.0111 29.6501 32.0641 29.4622 33.104 29.2177C32.7793 28.1619 32.4001 27.123 31.968 26.1049C31.654 26.7304 31.325 27.3559 30.981 27.9814ZM14.45 20.3177C11.401 21.4441 9.563 23.0843 9.563 24.3686C9.62113 24.7818 9.76191 25.1797 9.97728 25.5394C10.1926 25.8991 10.4784 26.2135 10.818 26.4647C11.9846 27.4265 13.3224 28.1687 14.764 28.6539C15.033 28.752 15.317 28.8265 15.601 28.9206C16.0601 27.3822 16.6142 25.8726 17.26 24.4C16.6129 22.9527 16.0637 21.4651 15.616 19.9471C15.2127 20.053 14.824 20.1765 14.45 20.3177ZM32.79 24.3686C33.4533 25.8225 34.0211 27.3164 34.49 28.8412C34.685 28.7784 34.879 28.7157 35.058 28.653C38.391 27.4961 40.458 25.7284 40.469 24.352C40.469 23.0696 38.556 21.4108 35.432 20.2853C35.118 20.1765 34.775 20.0667 34.432 19.9569C33.9792 21.4596 33.4308 22.9331 32.79 24.3686ZM30.967 20.7716C31.311 21.3971 31.64 22.0079 31.938 22.6177C32.3533 21.621 32.7125 20.6028 33.014 19.5677C31.9988 19.3258 30.9709 19.138 29.935 19.0049C30.294 19.5824 30.637 20.1618 30.966 20.7716H30.967ZM17.021 19.5549C17.321 20.5559 17.679 21.5726 18.097 22.6196C18.397 22.0098 18.725 21.4 19.054 20.7902C19.383 20.1804 19.726 19.5863 20.085 19.0069C19.009 19.1451 17.993 19.3324 17.021 19.5549ZM26.811 12.9079C26.557 13.1422 26.303 13.3922 26.048 13.6431C27.0859 14.8191 28.0399 16.0639 28.903 17.3686C30.4241 17.5126 31.9326 17.7636 33.417 18.1196C33.477 17.8853 33.517 17.65 33.567 17.4157C34.267 13.8186 33.836 11.0657 32.7 10.3784C32.4507 10.2412 32.1678 10.1734 31.882 10.1824C30.661 10.1765 28.787 11.1088 26.811 12.9049V12.9079ZM17.245 10.4177C16.184 11.0588 15.765 13.6235 16.393 17.002C16.468 17.3618 16.543 17.7206 16.632 18.0961C18.1184 17.7531 19.6264 17.5075 21.146 17.3608C22.0122 16.0544 22.9713 14.8095 24.016 13.6353C23.852 13.4628 23.672 13.3069 23.508 13.15C21.428 11.2216 19.428 10.2039 18.122 10.2039C17.8151 10.1937 17.5113 10.2677 17.245 10.4177ZM27.02 17.2363C26.4036 16.3619 25.7386 15.5214 25.028 14.7186C24.356 15.4843 23.683 16.3294 23.028 17.2363C23.686 17.2049 24.343 17.1892 25.016 17.1892C25.689 17.1892 26.363 17.202 27.021 17.2363H27.02ZM22.028 24.4314C22.014 24.0294 22.081 23.6287 22.2253 23.2522C22.3695 22.8756 22.5881 22.5307 22.8686 22.2372C23.149 21.9436 23.4858 21.7073 23.8596 21.5416C24.2335 21.3759 24.637 21.2841 25.047 21.2716C25.8743 21.2992 26.6568 21.6474 27.2227 22.2397C27.7886 22.832 28.0919 23.6202 28.066 24.4314C28.0927 25.2432 27.7897 26.0323 27.2234 26.6253C26.6572 27.2183 25.8741 27.5668 25.046 27.5941C24.6357 27.5816 24.232 27.4898 23.8581 27.3239C23.4841 27.158 23.1472 26.9213 22.8668 26.6274C22.5864 26.3336 22.368 25.9883 22.224 25.6114C22.0801 25.2346 22.0134 24.8335 22.028 24.4314Z" fill="#E6E6E6"/>
</svg>
