<svg width="50" height="50" viewBox="0 0 50 50" fill="none" xmlns="http://www.w3.org/2000/svg">
<path d="M45 0H5C2.23858 0 0 2.23858 0 5V45C0 47.7614 2.23858 50 5 50H45C47.7614 50 50 47.7614 50 45V5C50 2.23858 47.7614 0 45 0Z" fill="white"/>
<path fill-rule="evenodd" clip-rule="evenodd" d="M5 0C2.23858 0 0 2.23858 0 5V45C0 47.7614 2.23858 50 5 50H45C47.7614 50 50 47.7614 50 45V5C50 2.23858 47.7614 0 45 0H5ZM34.4335 21.3713C34.8555 21.3726 35.3349 21.3949 35.6956 21.434C37.1643 21.5929 38.3081 22.2266 39.2812 23.4201C39.7658 24.0146 39.9316 24.2748 39.8962 24.386C39.8735 24.4578 39.541 24.696 38.4839 25.3977C37.4455 26.087 37.111 26.2935 37.0333 26.2935C36.9545 26.2935 36.7905 26.1247 36.5539 25.8004C36.0983 25.1761 35.6332 24.8911 34.9142 24.7961C34.1409 24.6937 33.4473 24.9375 33.1076 25.4312C32.8172 25.853 32.7734 26.5318 33.0042 27.025C33.2715 27.5963 33.7555 27.9121 35.6103 28.7255C37.7495 29.6634 38.8335 30.3055 39.623 31.1022C40.4732 31.9603 40.904 32.951 41.0363 34.3523C41.1009 35.0353 41.022 35.8448 40.8265 36.503C40.3472 38.1164 39.0537 39.2979 37.1577 39.8539C36.6336 40.0076 36.1459 40.0994 35.6635 40.1347C34.9272 40.1889 33.873 40.159 33.2386 40.0666C31.6334 39.8329 29.8215 38.8988 28.9179 37.8397C28.4744 37.3198 27.9082 36.4643 27.9082 36.3137C27.9082 36.2411 27.9442 36.1999 28.0868 36.1092C28.5097 35.8405 30.9332 34.4551 30.9802 34.4551C31.0086 34.4551 31.1352 34.6043 31.2614 34.7866C31.5473 35.1994 32.2503 35.9089 32.6077 36.1457C32.8997 36.339 33.273 36.4943 33.7162 36.6063C33.9701 36.6696 34.1045 36.6809 34.6584 36.6809C35.2243 36.6807 35.3404 36.6712 35.5936 36.6031C36.2633 36.4229 36.786 36.05 37.0075 35.5944C37.1046 35.3976 37.1065 35.373 37.1065 34.8956V34.4006L36.9875 34.1645C36.6992 33.5922 36.078 33.1995 34.114 32.3488C33.2119 31.958 32.107 31.407 31.6756 31.1329C30.6912 30.5073 30.0089 29.7921 29.5611 28.9166C29.1157 28.046 29.0493 27.7219 29.0482 26.4128C29.0471 25.388 29.0454 25.4006 29.2576 24.7465C29.4501 24.153 29.8442 23.4899 30.2792 23.0276C31.1474 22.1047 32.4159 21.5116 33.7739 21.3936C33.9476 21.3771 34.1804 21.3705 34.4335 21.3713ZM22.7476 21.5737C25.3632 21.575 26.8629 21.5841 26.887 21.5992C26.9323 21.6273 26.938 21.8549 26.938 23.3076V24.9836L21.7181 25.0026V32.4128C21.7181 36.4885 21.7099 39.8473 21.6985 39.877C21.6801 39.9268 21.4794 39.9307 19.7812 39.9307H17.8845L17.8649 39.854C17.8522 39.8119 17.843 36.4531 17.8427 32.3898L17.8421 25.0022L12.6223 24.9834V23.3273C12.6223 22.0137 12.6314 21.662 12.6663 21.627C12.7022 21.59 14.0342 21.5804 19.7734 21.5748C20.88 21.5737 21.8757 21.5732 22.7476 21.5737Z" fill="#0288D1"/>
</svg>
